<?xml version="1.0" encoding="UTF-8"?>
<svg id="a" data-name="Layer_1" xmlns="http://www.w3.org/2000/svg" viewBox="0 0 500.94 72.59">
  <defs>
    <style>
      .b {
        stroke-dasharray: 12.63 12.63;
      }

      .b, .c, .d, .e {
        fill: none;
        stroke: #000;
        stroke-miterlimit: 10;
        stroke-width: 2px;
      }

      .c {
        stroke-dasharray: 9.31 9.31;
      }

      .e {
        stroke-dasharray: 11.34 11.34;
      }
    </style>
  </defs>
  <g>
    <path class="d" d="M281.83,48.77c1.88.67,3.77,1.34,5.65,2.01"/>
    <path class="b" d="M299.4,54.98c21.65,7.5,43.63,14.2,66.58,15.95,26.72,2.04,53.97-.51,79.55-8.6,15.03-4.75,29.57-9.73,43.81-15.97"/>
    <path class="d" d="M495.09,43.75c1.81-.84,3.61-1.71,5.41-2.6"/>
  </g>
  <g>
    <path class="d" d="M84.86,10.01c1.99-.22,3.98-.41,5.97-.57"/>
    <path class="e" d="M102.15,8.78c43.65-1.45,86.22,9.15,127.82,22.24"/>
    <path class="d" d="M235.36,32.74c1.91.61,3.81,1.22,5.71,1.84"/>
  </g>
  <g>
    <path class="d" d="M.5,39.15c1.73-1,3.48-1.98,5.23-2.94"/>
    <path class="c" d="M13.97,31.89c4.16-2.09,8.38-4.06,12.65-5.91"/>
    <path class="d" d="M30.92,24.18c1.85-.76,3.71-1.49,5.59-2.19"/>
  </g>
  <g>
    <path d="M52.06,10.07c-.35-.16-.71-.38-.84-.6-.13-.22-.17-.72-.25-1.14-.38-1.98-2.03-3.55-4.13-3.75-2.56-.24-4.82,1.64-5.06,4.2-.24,2.56,1.64,4.82,4.2,5.06,1.26.12,2.46-.28,3.37-1.03.15-.13.24-.2.42-.26.18-.06.47,0,.7.05,1.3.35,2.3.84,3.07,1.38l.34-.32c.11-.11.8-.77,1.82-1.74-.99-.48-2.36-1.26-3.63-1.85ZM46.17,11.71c-1.38-.13-2.4-1.35-2.27-2.74.13-1.38,1.35-2.4,2.74-2.27,1.38.13,2.4,1.35,2.27,2.74-.13,1.38-1.35,2.4-2.74,2.27Z"/>
    <path d="M77.96,17.21c.07-.75-.65-1.2-2.75-1.64-1.14-.24-6.5-1.18-11.18-1.98-1.44,1.88-2.74,3.57-3.5,4.56,5.13.09,13,.21,14.43.17,2.15-.05,2.94-.36,3.01-1.11Z"/>
    <path d="M57.53,25.08c-.23-.37-.53-.76-.59-1.01-.06-.25.06-.65.21-1.01.72-1.77,1.36-3.93,1.81-4.72,0,0,10.23-13.28,11.47-15.04,1.24-1.76,1.46-2.57.9-3.07-.56-.5-1.35-.19-2.96,1.23-1.61,1.42-13.71,13.02-13.71,13.02,0,0,2.65,2.97-.4,7.8-.12.19-.3.43-.48.51-.18.08-.29.09-.48.1-1.17.07-2.32.59-3.17,1.53-1.72,1.91-1.56,4.85.35,6.57,1.91,1.72,4.85,1.56,6.57-.36,1.41-1.57,1.55-3.85.49-5.56ZM57.3,15.85c-.36-.32-.39-.88-.07-1.24.32-.36.88-.39,1.24-.07.36.32.39.88.07,1.24-.32.36-.88.39-1.24.07ZM55.45,29.21c-.93,1.03-2.52,1.12-3.55.19s-1.12-2.52-.19-3.55,2.52-1.12,3.55-.19c1.03.93,1.12,2.52.19,3.55Z"/>
  </g>
  <g>
    <path d="M261.08,32.54c-.12-.37-.2-.78-.12-1.02.08-.25.42-.61.68-.96,1.2-1.61,1.26-3.89-.02-5.58-1.55-2.05-4.46-2.46-6.51-.91-2.05,1.55-2.46,4.46-.91,6.51.76,1.01,1.86,1.63,3.03,1.8.2.03.31.04.47.14.17.1.33.34.43.55.62,1.2.93,2.26,1.05,3.19l.47.04c.16.01,1.11.07,2.51.17-.31-1.05-.66-2.59-1.08-3.93ZM255.9,29.29c-.84-1.11-.61-2.68.49-3.52,1.11-.84,2.68-.61,3.52.49.84,1.11.61,2.68-.49,3.52-1.11.84-2.68.61-3.52-.49Z"/>
    <path d="M273.26,56.49c.6-.45.45-1.28-.64-3.14-.59-1.01-3.51-5.6-6.07-9.6-2.37.2-4.49.38-5.73.48,3.39,3.85,8.6,9.75,9.59,10.78,1.49,1.55,2.24,1.93,2.84,1.48Z"/>
    <path d="M253.67,46.69c.12-.41.2-.9.35-1.12.15-.21.52-.4.89-.53,1.79-.66,3.83-1.64,4.7-1.84,0,0,16.7-1.39,18.84-1.66,2.13-.27,2.89-.65,2.88-1.4,0-.75-.76-1.13-2.9-1.36-2.14-.23-18.86-1.36-18.86-1.36,0,0-.41,3.96-6.04,4.96-.23.04-.52.06-.7-.01-.18-.07-.26-.15-.4-.29-.84-.82-2-1.32-3.27-1.31-2.57.02-4.63,2.12-4.61,4.69.02,2.57,2.12,4.63,4.69,4.61,2.12-.02,3.89-1.44,4.44-3.38ZM260.34,40.31c0-.49.39-.88.87-.89.49,0,.88.39.89.87,0,.49-.39.88-.87.89-.49,0-.88-.39-.89-.87ZM249.22,47.93c-1.39.01-2.52-1.11-2.53-2.49s1.11-2.52,2.49-2.53,2.52,1.11,2.53,2.49c.01,1.39-1.11,2.52-2.49,2.53Z"/>
  </g>
</svg>