<?xml version="1.0" encoding="UTF-8"?>
<svg id="a" data-name="Layer_1" xmlns="http://www.w3.org/2000/svg" viewBox="0 0 72.59 500.94">
  <defs>
    <style>
      .b {
        stroke-dasharray: 12.63 12.63;
      }

      .b, .c, .d, .e {
        fill: none;
        stroke: #000;
        stroke-miterlimit: 10;
        stroke-width: 2px;
      }

      .c {
        stroke-dasharray: 9.31 9.31;
      }

      .e {
        stroke-dasharray: 11.34 11.34;
      }
    </style>
  </defs>
  <g>
    <path class="d" d="M23.82,281.83c-.67,1.88-1.34,3.77-2.01,5.65"/>
    <path class="b" d="M17.62,299.4c-7.5,21.65-14.2,43.63-15.95,66.58-2.04,26.72.51,53.97,8.6,79.55,4.75,15.03,9.73,29.57,15.97,43.81"/>
    <path class="d" d="M28.84,495.09c.84,1.81,1.71,3.61,2.6,5.41"/>
  </g>
  <g>
    <path class="d" d="M62.59,84.86c.22,1.99.41,3.98.57,5.97"/>
    <path class="e" d="M63.81,102.15c1.45,43.65-9.15,86.22-22.24,127.82"/>
    <path class="d" d="M39.85,235.36c-.61,1.91-1.22,3.81-1.84,5.71"/>
  </g>
  <g>
    <path class="d" d="M33.44.5c1,1.73,1.98,3.48,2.94,5.23"/>
    <path class="c" d="M40.71,13.97c2.09,4.16,4.06,8.38,5.91,12.65"/>
    <path class="d" d="M48.41,30.92c.76,1.85,1.49,3.71,2.19,5.59"/>
  </g>
  <g>
    <path d="M62.52,52.06c.16-.35.38-.71.6-.84.22-.13.72-.17,1.14-.25,1.98-.38,3.55-2.03,3.75-4.13.24-2.56-1.64-4.82-4.2-5.06-2.56-.24-4.82,1.64-5.06,4.2-.12,1.26.28,2.46,1.03,3.37.13.15.2.24.26.42.06.18,0,.47-.05.7-.35,1.3-.84,2.3-1.38,3.07l.32.34c.11.11.77.8,1.74,1.82.48-.99,1.26-2.36,1.85-3.63ZM60.88,46.17c.13-1.38,1.35-2.4,2.74-2.27,1.38.13,2.4,1.35,2.27,2.74-.13,1.38-1.35,2.4-2.74,2.27-1.38-.13-2.4-1.35-2.27-2.74Z"/>
    <path d="M55.39,77.96c.75.07,1.2-.65,1.64-2.75.24-1.14,1.18-6.5,1.98-11.18-1.88-1.44-3.57-2.74-4.56-3.5-.09,5.13-.21,13-.17,14.43.05,2.15.36,2.94,1.11,3.01Z"/>
    <path d="M47.52,57.53c.37-.23.76-.53,1.01-.59.25-.06.65.06,1.01.21,1.77.72,3.93,1.36,4.72,1.81,0,0,13.28,10.23,15.04,11.47,1.76,1.24,2.57,1.46,3.07.9.5-.56.19-1.35-1.23-2.96-1.42-1.61-13.02-13.71-13.02-13.71,0,0-2.97,2.65-7.8-.4-.19-.12-.43-.3-.51-.48-.08-.18-.09-.29-.1-.48-.07-1.17-.59-2.32-1.53-3.17-1.91-1.72-4.85-1.56-6.57.35-1.72,1.91-1.56,4.85.36,6.57,1.57,1.41,3.85,1.55,5.56.49ZM56.75,57.3c.32-.36.88-.39,1.24-.07.36.32.39.88.07,1.24-.32.36-.88.39-1.24.07-.36-.32-.39-.88-.07-1.24ZM43.39,55.45c-1.03-.93-1.12-2.52-.19-3.55s2.52-1.12,3.55-.19,1.12,2.52.19,3.55c-.93,1.03-2.52,1.12-3.55.19Z"/>
  </g>
  <g>
    <path d="M40.06,261.08c.37-.12.78-.2,1.02-.12.25.08.61.42.96.68,1.61,1.2,3.89,1.26,5.58-.02,2.05-1.55,2.46-4.46.91-6.51-1.55-2.05-4.46-2.46-6.51-.91-1.01.76-1.63,1.86-1.8,3.03-.03.2-.04.31-.14.47-.1.17-.34.33-.55.43-1.2.62-2.26.93-3.19,1.05l-.04.47c-.01.16-.07,1.11-.17,2.51,1.05-.31,2.59-.66,3.93-1.08ZM43.31,255.9c1.11-.84,2.68-.61,3.52.49.84,1.11.61,2.68-.49,3.52-1.11.84-2.68.61-3.52-.49-.84-1.11-.61-2.68.49-3.52Z"/>
    <path d="M16.1,273.26c.45.6,1.28.45,3.14-.64,1.01-.59,5.6-3.51,9.6-6.07-.2-2.37-.38-4.49-.48-5.73-3.85,3.39-9.75,8.6-10.78,9.59-1.55,1.49-1.93,2.24-1.48,2.84Z"/>
    <path d="M25.9,253.67c.41.12.9.2,1.12.35.21.15.4.52.53.89.66,1.79,1.64,3.83,1.84,4.7,0,0,1.39,16.7,1.66,18.84.27,2.13.65,2.89,1.4,2.88.75,0,1.13-.76,1.36-2.9.23-2.14,1.36-18.86,1.36-18.86,0,0-3.96-.41-4.96-6.04-.04-.23-.06-.52.01-.7.07-.18.15-.26.29-.4.82-.84,1.32-2,1.31-3.27-.02-2.57-2.12-4.63-4.69-4.61-2.57.02-4.63,2.12-4.61,4.69.02,2.12,1.44,3.89,3.38,4.44ZM32.29,260.34c.49,0,.88.39.89.87,0,.49-.39.88-.87.89-.49,0-.88-.39-.89-.87,0-.49.39-.88.87-.89ZM24.66,249.22c-.01-1.39,1.11-2.52,2.49-2.53s2.52,1.11,2.53,2.49-1.11,2.52-2.49,2.53c-1.39.01-2.52-1.11-2.53-2.49Z"/>
  </g>
</svg>