<?xml version="1.0" encoding="UTF-8"?>
<svg id="a" data-name="_x32_" xmlns="http://www.w3.org/2000/svg" viewBox="0 0 788.66 800">
  <defs>
    <style>
      .b {
        fill: #ed4300;
      }
    </style>
  </defs>
  <path class="b" d="M218.01,377.19c-8.4.24-17.33-.45-21.99-3.55-4.66-3.09-10.28-12.26-15.94-19.64-26.5-34.49-73.49-48.92-116.06-32.35C12.32,341.76-13.25,399.98,6.87,451.66c20.12,51.69,78.32,77.27,130,57.15,25.55-9.95,44.71-29.22,55.13-52.42,1.75-3.92,2.72-6.12,5.69-9.04,2.98-2.92,9.05-4.77,13.9-5.77,28.53-5.89,52.49-6.1,72.55-3.06l3.53-9.54c1.13-3.17,8.05-22.61,18.26-51.23-23.68.24-57.78-1.44-87.92-.57ZM120.13,465.82c-27.93,10.87-59.39-2.96-70.27-30.9-10.87-27.94,2.96-59.39,30.89-70.27,27.94-10.89,59.39,2.95,70.28,30.88,10.87,27.94-2.96,59.4-30.9,70.29Z"/>
  <path class="b" d="M787.25,264.33c-5.9-15.18-24.04-16.86-68.99-5.17-24.35,6.33-136.87,40.17-235.04,69.89-9.68,50.35-18.42,95.53-23.54,121.92,99.82-47.93,252.98-121.69,280.22-136.16,41.03-21.8,53.27-35.3,47.34-50.48Z"/>
  <path class="b" d="M468.78,613.98c-7.93-4.87-17.63-9.49-21.2-13.81-3.56-4.32-5.17-13.13-5.8-21.52-3.11-41.09-11.76-89.15-10.68-108.55,0,0,69.03-355.34,75.97-401.26,6.93-45.94,3.38-63.79-12.33-68.09-15.71-4.29-27.86,9.28-45.27,52.34-17.4,43.07-138.79,384.08-138.79,384.08,0,0,79.96,31.72,67.71,154.58-.49,4.92-1.7,11.15-4.29,14.42-2.59,3.28-4.67,4.46-8.38,6.62-21.98,12.76-39.15,33.83-46.38,60.29-14.63,53.49,16.88,108.72,70.36,123.35,53.5,14.62,108.73-16.89,123.35-70.38,12.05-44.06-7.2-89.3-44.26-112.06ZM375.19,437.94c-10.13-2.77-16.09-13.21-13.32-23.33,2.77-10.13,13.21-16.09,23.33-13.33,10.13,2.78,16.08,13.23,13.32,23.34-2.77,10.13-13.22,16.08-23.33,13.32ZM468.54,713.87c-7.9,28.92-37.76,45.95-66.68,38.04s-45.95-37.76-38.04-66.68,37.77-45.95,66.68-38.03c28.92,7.9,45.95,37.76,38.04,66.67Z"/>
</svg>